<mxfile host="app.diagrams.net" modified="2024-04-01T18:05:23.328Z" agent="Mozilla/5.0 (Windows NT 10.0; Win64; x64) AppleWebKit/537.36 (KHTML, like Gecko) Chrome/121.0.0.0 Safari/537.36 OPR/107.0.0.0" etag="AfiRuOJqMjrn6Wv6QnS2" version="24.2.1" type="device">
  <diagram name="Seite-1" id="n7j8sjYQ4zLVXo5sFIH9">
    <mxGraphModel dx="3096" dy="1702" grid="1" gridSize="10" guides="1" tooltips="1" connect="1" arrows="1" fold="1" page="1" pageScale="1" pageWidth="827" pageHeight="1169" math="0" shadow="0">
      <root>
        <mxCell id="0" />
        <mxCell id="1" parent="0" />
        <mxCell id="RH1s60IlDJt-m1Dcu7O3-2" value="" style="strokeWidth=1;shadow=0;dashed=0;align=center;html=1;shape=mxgraph.mockup.containers.marginRect2;rectMarginTop=32;whiteSpace=wrap;" vertex="1" parent="1">
          <mxGeometry x="80" y="40" width="580" height="420" as="geometry" />
        </mxCell>
        <mxCell id="RH1s60IlDJt-m1Dcu7O3-3" value="Home" style="strokeColor=inherit;fillColor=inherit;gradientColor=inherit;strokeWidth=1;shadow=0;dashed=0;align=center;html=1;shape=mxgraph.mockup.containers.rrect;rSize=0;fontSize=17;fontColor=#666666;gradientColor=none;" vertex="1" parent="RH1s60IlDJt-m1Dcu7O3-2">
          <mxGeometry width="60" height="25" relative="1" as="geometry">
            <mxPoint x="10" as="offset" />
          </mxGeometry>
        </mxCell>
        <mxCell id="RH1s60IlDJt-m1Dcu7O3-4" value="Tour" style="strokeWidth=1;shadow=0;dashed=0;align=center;html=1;shape=mxgraph.mockup.containers.rrect;rSize=0;fontSize=17;fontColor=#ffffff;strokeColor=#008cff;fillColor=#008cff;" vertex="1" parent="RH1s60IlDJt-m1Dcu7O3-2">
          <mxGeometry width="60" height="25" relative="1" as="geometry">
            <mxPoint x="75" as="offset" />
          </mxGeometry>
        </mxCell>
        <mxCell id="RH1s60IlDJt-m1Dcu7O3-5" value="Logs" style="strokeColor=inherit;fillColor=inherit;gradientColor=inherit;strokeWidth=1;shadow=0;dashed=0;align=center;html=1;shape=mxgraph.mockup.containers.rrect;rSize=0;fontSize=17;fontColor=#666666;gradientColor=none;" vertex="1" parent="RH1s60IlDJt-m1Dcu7O3-2">
          <mxGeometry width="60" height="25" relative="1" as="geometry">
            <mxPoint x="140" as="offset" />
          </mxGeometry>
        </mxCell>
        <mxCell id="RH1s60IlDJt-m1Dcu7O3-6" value="" style="strokeWidth=1;shadow=0;dashed=0;align=center;html=1;shape=mxgraph.mockup.containers.topButton;rSize=5;strokeColor=#008cff;fillColor=#008cff;gradientColor=none;resizeWidth=1;movable=0;deletable=1;" vertex="1" parent="RH1s60IlDJt-m1Dcu7O3-2">
          <mxGeometry width="402.1333333333333" height="7" relative="1" as="geometry">
            <mxPoint y="25" as="offset" />
          </mxGeometry>
        </mxCell>
        <mxCell id="RH1s60IlDJt-m1Dcu7O3-8" value="" style="verticalLabelPosition=bottom;shadow=0;dashed=0;align=center;html=1;verticalAlign=top;strokeWidth=1;shape=mxgraph.mockup.misc.map;" vertex="1" parent="RH1s60IlDJt-m1Dcu7O3-2">
          <mxGeometry x="360" y="40" width="210" height="210" as="geometry" />
        </mxCell>
        <mxCell id="RH1s60IlDJt-m1Dcu7O3-9" value="" style="rounded=0;whiteSpace=wrap;html=1;" vertex="1" parent="RH1s60IlDJt-m1Dcu7O3-2">
          <mxGeometry x="10" y="260" width="560" height="150" as="geometry" />
        </mxCell>
        <mxCell id="RH1s60IlDJt-m1Dcu7O3-10" value="" style="rounded=0;whiteSpace=wrap;html=1;" vertex="1" parent="RH1s60IlDJt-m1Dcu7O3-2">
          <mxGeometry x="10" y="260" width="100" height="30" as="geometry" />
        </mxCell>
        <mxCell id="RH1s60IlDJt-m1Dcu7O3-11" value="" style="rounded=0;whiteSpace=wrap;html=1;" vertex="1" parent="RH1s60IlDJt-m1Dcu7O3-2">
          <mxGeometry x="110" y="260" width="100" height="30" as="geometry" />
        </mxCell>
        <mxCell id="RH1s60IlDJt-m1Dcu7O3-12" value="" style="rounded=0;whiteSpace=wrap;html=1;" vertex="1" parent="RH1s60IlDJt-m1Dcu7O3-2">
          <mxGeometry x="210" y="260" width="100" height="30" as="geometry" />
        </mxCell>
        <mxCell id="RH1s60IlDJt-m1Dcu7O3-13" value="" style="rounded=0;whiteSpace=wrap;html=1;" vertex="1" parent="RH1s60IlDJt-m1Dcu7O3-2">
          <mxGeometry x="310" y="260" width="100" height="30" as="geometry" />
        </mxCell>
        <mxCell id="RH1s60IlDJt-m1Dcu7O3-14" value="" style="rounded=0;whiteSpace=wrap;html=1;" vertex="1" parent="RH1s60IlDJt-m1Dcu7O3-2">
          <mxGeometry x="410" y="260" width="100" height="30" as="geometry" />
        </mxCell>
        <mxCell id="RH1s60IlDJt-m1Dcu7O3-16" value="Date" style="text;html=1;align=center;verticalAlign=middle;whiteSpace=wrap;rounded=0;" vertex="1" parent="RH1s60IlDJt-m1Dcu7O3-2">
          <mxGeometry x="30" y="260" width="60" height="30" as="geometry" />
        </mxCell>
        <mxCell id="RH1s60IlDJt-m1Dcu7O3-17" value="Comment" style="text;html=1;align=center;verticalAlign=middle;whiteSpace=wrap;rounded=0;" vertex="1" parent="RH1s60IlDJt-m1Dcu7O3-2">
          <mxGeometry x="130" y="260" width="60" height="30" as="geometry" />
        </mxCell>
        <mxCell id="RH1s60IlDJt-m1Dcu7O3-18" value="Difficulty" style="text;html=1;align=center;verticalAlign=middle;whiteSpace=wrap;rounded=0;" vertex="1" parent="RH1s60IlDJt-m1Dcu7O3-2">
          <mxGeometry x="230" y="260" width="60" height="30" as="geometry" />
        </mxCell>
        <mxCell id="RH1s60IlDJt-m1Dcu7O3-19" value="Total Distance" style="text;html=1;align=center;verticalAlign=middle;whiteSpace=wrap;rounded=0;" vertex="1" parent="RH1s60IlDJt-m1Dcu7O3-2">
          <mxGeometry x="320" y="260" width="80" height="30" as="geometry" />
        </mxCell>
        <mxCell id="RH1s60IlDJt-m1Dcu7O3-20" value="Total Time" style="text;html=1;align=center;verticalAlign=middle;whiteSpace=wrap;rounded=0;" vertex="1" parent="RH1s60IlDJt-m1Dcu7O3-2">
          <mxGeometry x="430" y="260" width="60" height="30" as="geometry" />
        </mxCell>
        <mxCell id="RH1s60IlDJt-m1Dcu7O3-15" value="" style="rounded=0;whiteSpace=wrap;html=1;" vertex="1" parent="RH1s60IlDJt-m1Dcu7O3-2">
          <mxGeometry x="510" y="260" width="60" height="30" as="geometry" />
        </mxCell>
        <mxCell id="RH1s60IlDJt-m1Dcu7O3-21" value="Rating" style="text;html=1;align=center;verticalAlign=middle;whiteSpace=wrap;rounded=0;" vertex="1" parent="RH1s60IlDJt-m1Dcu7O3-2">
          <mxGeometry x="510" y="260" width="60" height="30" as="geometry" />
        </mxCell>
        <mxCell id="RH1s60IlDJt-m1Dcu7O3-22" value="Search ..." style="rounded=1;whiteSpace=wrap;html=1;align=left;" vertex="1" parent="RH1s60IlDJt-m1Dcu7O3-2">
          <mxGeometry x="10" y="40" width="340" height="20" as="geometry" />
        </mxCell>
        <mxCell id="RH1s60IlDJt-m1Dcu7O3-23" value="" style="strokeWidth=1;shadow=0;dashed=0;align=center;html=1;shape=mxgraph.mockup.forms.rrect;rSize=0;strokeColor=#999999;fillColor=#ffffff;" vertex="1" parent="RH1s60IlDJt-m1Dcu7O3-2">
          <mxGeometry x="10" y="70" width="340" height="180" as="geometry" />
        </mxCell>
        <mxCell id="RH1s60IlDJt-m1Dcu7O3-24" value="Tours" style="strokeWidth=1;shadow=0;dashed=0;align=center;html=1;shape=mxgraph.mockup.forms.rrect;rSize=0;strokeColor=#999999;fontColor=#008cff;fontSize=17;fillColor=#ffffff;resizeWidth=1;whiteSpace=wrap;" vertex="1" parent="RH1s60IlDJt-m1Dcu7O3-23">
          <mxGeometry width="340" height="30" relative="1" as="geometry">
            <mxPoint y="-1" as="offset" />
          </mxGeometry>
        </mxCell>
        <mxCell id="RH1s60IlDJt-m1Dcu7O3-25" value="TourA" style="strokeWidth=1;shadow=0;dashed=0;align=center;html=1;shape=mxgraph.mockup.forms.anchor;fontSize=17;fontColor=#666666;align=left;spacingLeft=5;resizeWidth=1;whiteSpace=wrap;" vertex="1" parent="RH1s60IlDJt-m1Dcu7O3-23">
          <mxGeometry width="340" height="20" relative="1" as="geometry">
            <mxPoint y="30" as="offset" />
          </mxGeometry>
        </mxCell>
        <mxCell id="RH1s60IlDJt-m1Dcu7O3-26" value="TourB" style="strokeWidth=1;shadow=0;dashed=0;align=center;html=1;shape=mxgraph.mockup.forms.anchor;fontSize=17;fontColor=#666666;align=left;spacingLeft=5;resizeWidth=1;whiteSpace=wrap;" vertex="1" parent="RH1s60IlDJt-m1Dcu7O3-23">
          <mxGeometry width="340" height="20" relative="1" as="geometry">
            <mxPoint y="50" as="offset" />
          </mxGeometry>
        </mxCell>
        <mxCell id="RH1s60IlDJt-m1Dcu7O3-27" value="TourC" style="strokeWidth=1;shadow=0;dashed=0;align=center;html=1;shape=mxgraph.mockup.forms.rrect;rSize=0;fontSize=17;fontColor=#666666;align=left;spacingLeft=5;fillColor=#ddeeff;strokeColor=none;resizeWidth=1;whiteSpace=wrap;" vertex="1" parent="RH1s60IlDJt-m1Dcu7O3-23">
          <mxGeometry width="340" height="20" relative="1" as="geometry">
            <mxPoint y="70" as="offset" />
          </mxGeometry>
        </mxCell>
        <mxCell id="RH1s60IlDJt-m1Dcu7O3-28" value="TourD" style="strokeWidth=1;shadow=0;dashed=0;align=center;html=1;shape=mxgraph.mockup.forms.anchor;fontSize=17;fontColor=#666666;align=left;spacingLeft=5;resizeWidth=1;whiteSpace=wrap;" vertex="1" parent="RH1s60IlDJt-m1Dcu7O3-23">
          <mxGeometry width="340" height="20" relative="1" as="geometry">
            <mxPoint y="90" as="offset" />
          </mxGeometry>
        </mxCell>
        <mxCell id="RH1s60IlDJt-m1Dcu7O3-29" value="" style="rounded=0;whiteSpace=wrap;html=1;" vertex="1" parent="1">
          <mxGeometry x="40" y="70" width="40" height="390" as="geometry" />
        </mxCell>
        <mxCell id="RH1s60IlDJt-m1Dcu7O3-30" value="" style="strokeColor=#999999;verticalLabelPosition=bottom;shadow=0;dashed=0;verticalAlign=top;strokeWidth=2;html=1;shape=mxgraph.mockup.misc.printIcon;" vertex="1" parent="1">
          <mxGeometry x="45" y="420" width="30" height="30" as="geometry" />
        </mxCell>
        <mxCell id="RH1s60IlDJt-m1Dcu7O3-31" value="" style="strokeColor=#999999;verticalLabelPosition=bottom;shadow=0;dashed=0;verticalAlign=top;strokeWidth=2;html=1;shape=mxgraph.mockup.misc.printIcon;" vertex="1" parent="1">
          <mxGeometry x="45" y="380" width="30" height="30" as="geometry" />
        </mxCell>
        <mxCell id="RH1s60IlDJt-m1Dcu7O3-32" value="" style="strokeWidth=1;shadow=0;dashed=0;align=center;html=1;shape=mxgraph.mockup.containers.marginRect2;rectMarginTop=32;whiteSpace=wrap;" vertex="1" parent="1">
          <mxGeometry x="80" y="550" width="580" height="420" as="geometry" />
        </mxCell>
        <mxCell id="RH1s60IlDJt-m1Dcu7O3-33" value="Home" style="strokeColor=inherit;fillColor=inherit;gradientColor=inherit;strokeWidth=1;shadow=0;dashed=0;align=center;html=1;shape=mxgraph.mockup.containers.rrect;rSize=0;fontSize=17;fontColor=#666666;gradientColor=none;" vertex="1" parent="RH1s60IlDJt-m1Dcu7O3-32">
          <mxGeometry width="60" height="25" relative="1" as="geometry">
            <mxPoint x="10" as="offset" />
          </mxGeometry>
        </mxCell>
        <mxCell id="RH1s60IlDJt-m1Dcu7O3-34" value="Tour" style="strokeWidth=1;shadow=0;dashed=0;align=center;html=1;shape=mxgraph.mockup.containers.rrect;rSize=0;fontSize=17;fontColor=#ffffff;strokeColor=#008cff;fillColor=#008cff;" vertex="1" parent="RH1s60IlDJt-m1Dcu7O3-32">
          <mxGeometry width="60" height="25" relative="1" as="geometry">
            <mxPoint x="75" as="offset" />
          </mxGeometry>
        </mxCell>
        <mxCell id="RH1s60IlDJt-m1Dcu7O3-35" value="Logs" style="strokeColor=inherit;fillColor=inherit;gradientColor=inherit;strokeWidth=1;shadow=0;dashed=0;align=center;html=1;shape=mxgraph.mockup.containers.rrect;rSize=0;fontSize=17;fontColor=#666666;gradientColor=none;" vertex="1" parent="RH1s60IlDJt-m1Dcu7O3-32">
          <mxGeometry width="60" height="25" relative="1" as="geometry">
            <mxPoint x="140" as="offset" />
          </mxGeometry>
        </mxCell>
        <mxCell id="RH1s60IlDJt-m1Dcu7O3-36" value="" style="strokeWidth=1;shadow=0;dashed=0;align=center;html=1;shape=mxgraph.mockup.containers.topButton;rSize=5;strokeColor=#008cff;fillColor=#008cff;gradientColor=none;resizeWidth=1;movable=0;deletable=1;" vertex="1" parent="RH1s60IlDJt-m1Dcu7O3-32">
          <mxGeometry width="402.1333333333333" height="7" relative="1" as="geometry">
            <mxPoint y="25" as="offset" />
          </mxGeometry>
        </mxCell>
        <mxCell id="RH1s60IlDJt-m1Dcu7O3-63" value="Add New Tour" style="text;html=1;align=center;verticalAlign=middle;whiteSpace=wrap;rounded=0;" vertex="1" parent="RH1s60IlDJt-m1Dcu7O3-32">
          <mxGeometry x="230" y="40" width="120" height="30" as="geometry" />
        </mxCell>
        <mxCell id="RH1s60IlDJt-m1Dcu7O3-64" value="Name:" style="text;html=1;align=center;verticalAlign=middle;whiteSpace=wrap;rounded=0;" vertex="1" parent="RH1s60IlDJt-m1Dcu7O3-32">
          <mxGeometry x="10" y="70" width="130" height="30" as="geometry" />
        </mxCell>
        <mxCell id="RH1s60IlDJt-m1Dcu7O3-65" value="" style="rounded=1;whiteSpace=wrap;html=1;" vertex="1" parent="RH1s60IlDJt-m1Dcu7O3-32">
          <mxGeometry x="156" y="75" width="224" height="20" as="geometry" />
        </mxCell>
        <mxCell id="RH1s60IlDJt-m1Dcu7O3-66" value="Description:" style="text;html=1;align=center;verticalAlign=middle;whiteSpace=wrap;rounded=0;" vertex="1" parent="RH1s60IlDJt-m1Dcu7O3-32">
          <mxGeometry x="10" y="100" width="130" height="30" as="geometry" />
        </mxCell>
        <mxCell id="RH1s60IlDJt-m1Dcu7O3-67" value="" style="rounded=1;whiteSpace=wrap;html=1;" vertex="1" parent="RH1s60IlDJt-m1Dcu7O3-32">
          <mxGeometry x="156" y="105" width="224" height="20" as="geometry" />
        </mxCell>
        <mxCell id="RH1s60IlDJt-m1Dcu7O3-68" value="From:" style="text;html=1;align=center;verticalAlign=middle;whiteSpace=wrap;rounded=0;" vertex="1" parent="RH1s60IlDJt-m1Dcu7O3-32">
          <mxGeometry x="10" y="130" width="130" height="30" as="geometry" />
        </mxCell>
        <mxCell id="RH1s60IlDJt-m1Dcu7O3-69" value="" style="rounded=1;whiteSpace=wrap;html=1;" vertex="1" parent="RH1s60IlDJt-m1Dcu7O3-32">
          <mxGeometry x="156" y="135" width="224" height="20" as="geometry" />
        </mxCell>
        <mxCell id="RH1s60IlDJt-m1Dcu7O3-70" value="To:" style="text;html=1;align=center;verticalAlign=middle;whiteSpace=wrap;rounded=0;" vertex="1" parent="RH1s60IlDJt-m1Dcu7O3-32">
          <mxGeometry x="10" y="160" width="130" height="30" as="geometry" />
        </mxCell>
        <mxCell id="RH1s60IlDJt-m1Dcu7O3-71" value="" style="rounded=1;whiteSpace=wrap;html=1;" vertex="1" parent="RH1s60IlDJt-m1Dcu7O3-32">
          <mxGeometry x="156" y="165" width="224" height="20" as="geometry" />
        </mxCell>
        <mxCell id="RH1s60IlDJt-m1Dcu7O3-72" value="Transport Type:" style="text;html=1;align=center;verticalAlign=middle;whiteSpace=wrap;rounded=0;" vertex="1" parent="RH1s60IlDJt-m1Dcu7O3-32">
          <mxGeometry x="10" y="190" width="130" height="30" as="geometry" />
        </mxCell>
        <mxCell id="RH1s60IlDJt-m1Dcu7O3-73" value="" style="rounded=1;whiteSpace=wrap;html=1;" vertex="1" parent="RH1s60IlDJt-m1Dcu7O3-32">
          <mxGeometry x="156" y="195" width="224" height="20" as="geometry" />
        </mxCell>
        <mxCell id="RH1s60IlDJt-m1Dcu7O3-74" value="Distance:" style="text;html=1;align=center;verticalAlign=middle;whiteSpace=wrap;rounded=0;" vertex="1" parent="RH1s60IlDJt-m1Dcu7O3-32">
          <mxGeometry x="10" y="220" width="130" height="30" as="geometry" />
        </mxCell>
        <mxCell id="RH1s60IlDJt-m1Dcu7O3-75" value="" style="rounded=1;whiteSpace=wrap;html=1;" vertex="1" parent="RH1s60IlDJt-m1Dcu7O3-32">
          <mxGeometry x="156" y="225" width="224" height="20" as="geometry" />
        </mxCell>
        <mxCell id="RH1s60IlDJt-m1Dcu7O3-76" value="Estimated Time:" style="text;html=1;align=center;verticalAlign=middle;whiteSpace=wrap;rounded=0;" vertex="1" parent="RH1s60IlDJt-m1Dcu7O3-32">
          <mxGeometry x="10" y="250" width="130" height="30" as="geometry" />
        </mxCell>
        <mxCell id="RH1s60IlDJt-m1Dcu7O3-77" value="" style="rounded=1;whiteSpace=wrap;html=1;" vertex="1" parent="RH1s60IlDJt-m1Dcu7O3-32">
          <mxGeometry x="156" y="255" width="224" height="20" as="geometry" />
        </mxCell>
        <mxCell id="RH1s60IlDJt-m1Dcu7O3-78" value="Add Tour" style="strokeWidth=1;shadow=0;dashed=0;align=center;html=1;shape=mxgraph.mockup.buttons.button;strokeColor=#666666;fontColor=#ffffff;mainText=;buttonStyle=round;fontSize=17;fontStyle=1;fillColor=#008cff;whiteSpace=wrap;" vertex="1" parent="RH1s60IlDJt-m1Dcu7O3-32">
          <mxGeometry y="340" width="200" height="80" as="geometry" />
        </mxCell>
        <mxCell id="RH1s60IlDJt-m1Dcu7O3-79" value="Update Tour" style="strokeWidth=1;shadow=0;dashed=0;align=center;html=1;shape=mxgraph.mockup.buttons.button;strokeColor=#666666;fontColor=#ffffff;mainText=;buttonStyle=round;fontSize=17;fontStyle=1;fillColor=#008cff;whiteSpace=wrap;" vertex="1" parent="RH1s60IlDJt-m1Dcu7O3-32">
          <mxGeometry x="200" y="340" width="190" height="80" as="geometry" />
        </mxCell>
        <mxCell id="RH1s60IlDJt-m1Dcu7O3-80" value="Delete Tour" style="strokeWidth=1;shadow=0;dashed=0;align=center;html=1;shape=mxgraph.mockup.buttons.button;strokeColor=#666666;fontColor=#ffffff;mainText=;buttonStyle=round;fontSize=17;fontStyle=1;fillColor=#008cff;whiteSpace=wrap;" vertex="1" parent="RH1s60IlDJt-m1Dcu7O3-32">
          <mxGeometry x="390" y="340" width="190" height="80" as="geometry" />
        </mxCell>
        <mxCell id="RH1s60IlDJt-m1Dcu7O3-81" value="" style="strokeWidth=1;shadow=0;dashed=0;align=center;html=1;shape=mxgraph.mockup.forms.rrect;rSize=0;strokeColor=#999999;fillColor=#ffffff;" vertex="1" parent="RH1s60IlDJt-m1Dcu7O3-32">
          <mxGeometry x="390" y="75" width="180" height="245" as="geometry" />
        </mxCell>
        <mxCell id="RH1s60IlDJt-m1Dcu7O3-82" value="Tours" style="strokeWidth=1;shadow=0;dashed=0;align=center;html=1;shape=mxgraph.mockup.forms.rrect;rSize=0;strokeColor=#999999;fontColor=#008cff;fontSize=17;fillColor=#ffffff;resizeWidth=1;whiteSpace=wrap;" vertex="1" parent="RH1s60IlDJt-m1Dcu7O3-81">
          <mxGeometry width="180" height="30" relative="1" as="geometry">
            <mxPoint y="-1" as="offset" />
          </mxGeometry>
        </mxCell>
        <mxCell id="RH1s60IlDJt-m1Dcu7O3-83" value="TourA" style="strokeWidth=1;shadow=0;dashed=0;align=center;html=1;shape=mxgraph.mockup.forms.anchor;fontSize=17;fontColor=#666666;align=left;spacingLeft=5;resizeWidth=1;whiteSpace=wrap;" vertex="1" parent="RH1s60IlDJt-m1Dcu7O3-81">
          <mxGeometry width="180" height="20" relative="1" as="geometry">
            <mxPoint y="30" as="offset" />
          </mxGeometry>
        </mxCell>
        <mxCell id="RH1s60IlDJt-m1Dcu7O3-84" value="TourB" style="strokeWidth=1;shadow=0;dashed=0;align=center;html=1;shape=mxgraph.mockup.forms.anchor;fontSize=17;fontColor=#666666;align=left;spacingLeft=5;resizeWidth=1;whiteSpace=wrap;" vertex="1" parent="RH1s60IlDJt-m1Dcu7O3-81">
          <mxGeometry width="180" height="20" relative="1" as="geometry">
            <mxPoint y="50" as="offset" />
          </mxGeometry>
        </mxCell>
        <mxCell id="RH1s60IlDJt-m1Dcu7O3-85" value="TourC" style="strokeWidth=1;shadow=0;dashed=0;align=center;html=1;shape=mxgraph.mockup.forms.rrect;rSize=0;fontSize=17;align=left;spacingLeft=5;resizeWidth=1;whiteSpace=wrap;strokeColor=none;" vertex="1" parent="RH1s60IlDJt-m1Dcu7O3-81">
          <mxGeometry width="180" height="20" relative="1" as="geometry">
            <mxPoint y="70" as="offset" />
          </mxGeometry>
        </mxCell>
        <mxCell id="RH1s60IlDJt-m1Dcu7O3-86" value="TourD" style="strokeWidth=1;shadow=0;dashed=0;align=center;html=1;shape=mxgraph.mockup.forms.anchor;fontSize=17;fontColor=#666666;align=left;spacingLeft=5;resizeWidth=1;whiteSpace=wrap;" vertex="1" parent="RH1s60IlDJt-m1Dcu7O3-81">
          <mxGeometry width="180" height="20" relative="1" as="geometry">
            <mxPoint y="90" as="offset" />
          </mxGeometry>
        </mxCell>
        <mxCell id="RH1s60IlDJt-m1Dcu7O3-58" value="" style="rounded=0;whiteSpace=wrap;html=1;" vertex="1" parent="1">
          <mxGeometry x="40" y="580" width="40" height="390" as="geometry" />
        </mxCell>
        <mxCell id="RH1s60IlDJt-m1Dcu7O3-59" value="" style="strokeColor=#999999;verticalLabelPosition=bottom;shadow=0;dashed=0;verticalAlign=top;strokeWidth=2;html=1;shape=mxgraph.mockup.misc.printIcon;" vertex="1" parent="1">
          <mxGeometry x="45" y="930" width="30" height="30" as="geometry" />
        </mxCell>
        <mxCell id="RH1s60IlDJt-m1Dcu7O3-60" value="" style="strokeColor=#999999;verticalLabelPosition=bottom;shadow=0;dashed=0;verticalAlign=top;strokeWidth=2;html=1;shape=mxgraph.mockup.misc.printIcon;" vertex="1" parent="1">
          <mxGeometry x="45" y="890" width="30" height="30" as="geometry" />
        </mxCell>
        <mxCell id="RH1s60IlDJt-m1Dcu7O3-61" value="" style="shape=flexArrow;endArrow=classic;html=1;rounded=0;entryX=0.684;entryY=-0.429;entryDx=0;entryDy=0;entryPerimeter=0;" edge="1" parent="1">
          <mxGeometry width="50" height="50" relative="1" as="geometry">
            <mxPoint x="355" y="473" as="sourcePoint" />
            <mxPoint x="355.05920000000015" y="564.9970000000001" as="targetPoint" />
          </mxGeometry>
        </mxCell>
        <mxCell id="RH1s60IlDJt-m1Dcu7O3-62" value="Click on Tab &quot;Tour&quot;&amp;nbsp;" style="text;html=1;align=center;verticalAlign=middle;whiteSpace=wrap;rounded=0;" vertex="1" parent="1">
          <mxGeometry x="370" y="500" width="130" height="30" as="geometry" />
        </mxCell>
        <mxCell id="RH1s60IlDJt-m1Dcu7O3-120" value="" style="strokeWidth=1;shadow=0;dashed=0;align=center;html=1;shape=mxgraph.mockup.containers.marginRect2;rectMarginTop=32;whiteSpace=wrap;" vertex="1" parent="1">
          <mxGeometry x="914" y="550" width="580" height="420" as="geometry" />
        </mxCell>
        <mxCell id="RH1s60IlDJt-m1Dcu7O3-121" value="Home" style="strokeColor=inherit;fillColor=inherit;gradientColor=inherit;strokeWidth=1;shadow=0;dashed=0;align=center;html=1;shape=mxgraph.mockup.containers.rrect;rSize=0;fontSize=17;fontColor=#666666;gradientColor=none;" vertex="1" parent="RH1s60IlDJt-m1Dcu7O3-120">
          <mxGeometry width="60" height="25" relative="1" as="geometry">
            <mxPoint x="10" as="offset" />
          </mxGeometry>
        </mxCell>
        <mxCell id="RH1s60IlDJt-m1Dcu7O3-122" value="Tour" style="strokeWidth=1;shadow=0;dashed=0;align=center;html=1;shape=mxgraph.mockup.containers.rrect;rSize=0;fontSize=17;fontColor=#ffffff;strokeColor=#008cff;fillColor=#008cff;" vertex="1" parent="RH1s60IlDJt-m1Dcu7O3-120">
          <mxGeometry width="60" height="25" relative="1" as="geometry">
            <mxPoint x="75" as="offset" />
          </mxGeometry>
        </mxCell>
        <mxCell id="RH1s60IlDJt-m1Dcu7O3-123" value="Logs" style="strokeColor=inherit;fillColor=inherit;gradientColor=inherit;strokeWidth=1;shadow=0;dashed=0;align=center;html=1;shape=mxgraph.mockup.containers.rrect;rSize=0;fontSize=17;fontColor=#666666;gradientColor=none;" vertex="1" parent="RH1s60IlDJt-m1Dcu7O3-120">
          <mxGeometry width="60" height="25" relative="1" as="geometry">
            <mxPoint x="140" as="offset" />
          </mxGeometry>
        </mxCell>
        <mxCell id="RH1s60IlDJt-m1Dcu7O3-124" value="" style="strokeWidth=1;shadow=0;dashed=0;align=center;html=1;shape=mxgraph.mockup.containers.topButton;rSize=5;strokeColor=#008cff;fillColor=#008cff;gradientColor=none;resizeWidth=1;movable=0;deletable=1;" vertex="1" parent="RH1s60IlDJt-m1Dcu7O3-120">
          <mxGeometry width="402.1333333333333" height="7" relative="1" as="geometry">
            <mxPoint y="25" as="offset" />
          </mxGeometry>
        </mxCell>
        <mxCell id="RH1s60IlDJt-m1Dcu7O3-125" value="Add New Tour" style="text;html=1;align=center;verticalAlign=middle;whiteSpace=wrap;rounded=0;" vertex="1" parent="RH1s60IlDJt-m1Dcu7O3-120">
          <mxGeometry x="230" y="40" width="120" height="30" as="geometry" />
        </mxCell>
        <mxCell id="RH1s60IlDJt-m1Dcu7O3-126" value="Name:" style="text;html=1;align=center;verticalAlign=middle;whiteSpace=wrap;rounded=0;" vertex="1" parent="RH1s60IlDJt-m1Dcu7O3-120">
          <mxGeometry x="10" y="70" width="130" height="30" as="geometry" />
        </mxCell>
        <mxCell id="RH1s60IlDJt-m1Dcu7O3-127" value="TourE" style="rounded=1;whiteSpace=wrap;html=1;align=left;" vertex="1" parent="RH1s60IlDJt-m1Dcu7O3-120">
          <mxGeometry x="156" y="75" width="224" height="20" as="geometry" />
        </mxCell>
        <mxCell id="RH1s60IlDJt-m1Dcu7O3-128" value="Description:" style="text;html=1;align=center;verticalAlign=middle;whiteSpace=wrap;rounded=0;" vertex="1" parent="RH1s60IlDJt-m1Dcu7O3-120">
          <mxGeometry x="10" y="100" width="130" height="30" as="geometry" />
        </mxCell>
        <mxCell id="RH1s60IlDJt-m1Dcu7O3-129" value="idk" style="rounded=1;whiteSpace=wrap;html=1;align=left;" vertex="1" parent="RH1s60IlDJt-m1Dcu7O3-120">
          <mxGeometry x="156" y="105" width="224" height="20" as="geometry" />
        </mxCell>
        <mxCell id="RH1s60IlDJt-m1Dcu7O3-130" value="From:" style="text;html=1;align=center;verticalAlign=middle;whiteSpace=wrap;rounded=0;" vertex="1" parent="RH1s60IlDJt-m1Dcu7O3-120">
          <mxGeometry x="10" y="130" width="130" height="30" as="geometry" />
        </mxCell>
        <mxCell id="RH1s60IlDJt-m1Dcu7O3-131" value="A" style="rounded=1;whiteSpace=wrap;html=1;align=left;" vertex="1" parent="RH1s60IlDJt-m1Dcu7O3-120">
          <mxGeometry x="156" y="135" width="224" height="20" as="geometry" />
        </mxCell>
        <mxCell id="RH1s60IlDJt-m1Dcu7O3-132" value="To:" style="text;html=1;align=center;verticalAlign=middle;whiteSpace=wrap;rounded=0;" vertex="1" parent="RH1s60IlDJt-m1Dcu7O3-120">
          <mxGeometry x="10" y="160" width="130" height="30" as="geometry" />
        </mxCell>
        <mxCell id="RH1s60IlDJt-m1Dcu7O3-133" value="B" style="rounded=1;whiteSpace=wrap;html=1;align=left;" vertex="1" parent="RH1s60IlDJt-m1Dcu7O3-120">
          <mxGeometry x="156" y="165" width="224" height="20" as="geometry" />
        </mxCell>
        <mxCell id="RH1s60IlDJt-m1Dcu7O3-134" value="Transport Type:" style="text;html=1;align=center;verticalAlign=middle;whiteSpace=wrap;rounded=0;" vertex="1" parent="RH1s60IlDJt-m1Dcu7O3-120">
          <mxGeometry x="10" y="190" width="130" height="30" as="geometry" />
        </mxCell>
        <mxCell id="RH1s60IlDJt-m1Dcu7O3-135" value="Bim" style="rounded=1;whiteSpace=wrap;html=1;align=left;" vertex="1" parent="RH1s60IlDJt-m1Dcu7O3-120">
          <mxGeometry x="156" y="195" width="224" height="20" as="geometry" />
        </mxCell>
        <mxCell id="RH1s60IlDJt-m1Dcu7O3-136" value="Distance:" style="text;html=1;align=center;verticalAlign=middle;whiteSpace=wrap;rounded=0;" vertex="1" parent="RH1s60IlDJt-m1Dcu7O3-120">
          <mxGeometry x="10" y="220" width="130" height="30" as="geometry" />
        </mxCell>
        <mxCell id="RH1s60IlDJt-m1Dcu7O3-137" value="&lt;font color=&quot;#ff0000&quot;&gt;Test&lt;/font&gt;" style="rounded=1;whiteSpace=wrap;html=1;align=left;strokeColor=#ff0000;" vertex="1" parent="RH1s60IlDJt-m1Dcu7O3-120">
          <mxGeometry x="156" y="225" width="224" height="20" as="geometry" />
        </mxCell>
        <mxCell id="RH1s60IlDJt-m1Dcu7O3-138" value="Estimated Time:" style="text;html=1;align=center;verticalAlign=middle;whiteSpace=wrap;rounded=0;" vertex="1" parent="RH1s60IlDJt-m1Dcu7O3-120">
          <mxGeometry x="10" y="250" width="130" height="30" as="geometry" />
        </mxCell>
        <mxCell id="RH1s60IlDJt-m1Dcu7O3-139" value="5" style="rounded=1;whiteSpace=wrap;html=1;align=left;" vertex="1" parent="RH1s60IlDJt-m1Dcu7O3-120">
          <mxGeometry x="156" y="255" width="224" height="20" as="geometry" />
        </mxCell>
        <mxCell id="RH1s60IlDJt-m1Dcu7O3-140" value="Add Tour" style="strokeWidth=1;shadow=0;dashed=0;align=center;html=1;shape=mxgraph.mockup.buttons.button;strokeColor=#666666;fontColor=#ffffff;mainText=;buttonStyle=round;fontSize=17;fontStyle=1;fillColor=#008cff;whiteSpace=wrap;" vertex="1" parent="RH1s60IlDJt-m1Dcu7O3-120">
          <mxGeometry y="340" width="200" height="80" as="geometry" />
        </mxCell>
        <mxCell id="RH1s60IlDJt-m1Dcu7O3-141" value="Update Tour" style="strokeWidth=1;shadow=0;dashed=0;align=center;html=1;shape=mxgraph.mockup.buttons.button;strokeColor=#666666;fontColor=#ffffff;mainText=;buttonStyle=round;fontSize=17;fontStyle=1;fillColor=#008cff;whiteSpace=wrap;" vertex="1" parent="RH1s60IlDJt-m1Dcu7O3-120">
          <mxGeometry x="200" y="340" width="190" height="80" as="geometry" />
        </mxCell>
        <mxCell id="RH1s60IlDJt-m1Dcu7O3-142" value="Delete Tour" style="strokeWidth=1;shadow=0;dashed=0;align=center;html=1;shape=mxgraph.mockup.buttons.button;strokeColor=#666666;fontColor=#ffffff;mainText=;buttonStyle=round;fontSize=17;fontStyle=1;fillColor=#008cff;whiteSpace=wrap;" vertex="1" parent="RH1s60IlDJt-m1Dcu7O3-120">
          <mxGeometry x="390" y="340" width="190" height="80" as="geometry" />
        </mxCell>
        <mxCell id="RH1s60IlDJt-m1Dcu7O3-143" value="" style="strokeWidth=1;shadow=0;dashed=0;align=center;html=1;shape=mxgraph.mockup.forms.rrect;rSize=0;strokeColor=#999999;fillColor=#ffffff;" vertex="1" parent="RH1s60IlDJt-m1Dcu7O3-120">
          <mxGeometry x="390" y="75" width="180" height="245" as="geometry" />
        </mxCell>
        <mxCell id="RH1s60IlDJt-m1Dcu7O3-144" value="Tours" style="strokeWidth=1;shadow=0;dashed=0;align=center;html=1;shape=mxgraph.mockup.forms.rrect;rSize=0;strokeColor=#999999;fontColor=#008cff;fontSize=17;fillColor=#ffffff;resizeWidth=1;whiteSpace=wrap;" vertex="1" parent="RH1s60IlDJt-m1Dcu7O3-143">
          <mxGeometry width="180" height="30" relative="1" as="geometry">
            <mxPoint y="-1" as="offset" />
          </mxGeometry>
        </mxCell>
        <mxCell id="RH1s60IlDJt-m1Dcu7O3-145" value="TourA" style="strokeWidth=1;shadow=0;dashed=0;align=center;html=1;shape=mxgraph.mockup.forms.anchor;fontSize=17;fontColor=#666666;align=left;spacingLeft=5;resizeWidth=1;whiteSpace=wrap;" vertex="1" parent="RH1s60IlDJt-m1Dcu7O3-143">
          <mxGeometry width="180" height="20" relative="1" as="geometry">
            <mxPoint y="30" as="offset" />
          </mxGeometry>
        </mxCell>
        <mxCell id="RH1s60IlDJt-m1Dcu7O3-146" value="TourB" style="strokeWidth=1;shadow=0;dashed=0;align=center;html=1;shape=mxgraph.mockup.forms.anchor;fontSize=17;fontColor=#666666;align=left;spacingLeft=5;resizeWidth=1;whiteSpace=wrap;" vertex="1" parent="RH1s60IlDJt-m1Dcu7O3-143">
          <mxGeometry width="180" height="20" relative="1" as="geometry">
            <mxPoint y="50" as="offset" />
          </mxGeometry>
        </mxCell>
        <mxCell id="RH1s60IlDJt-m1Dcu7O3-147" value="TourC" style="strokeWidth=1;shadow=0;dashed=0;align=center;html=1;shape=mxgraph.mockup.forms.rrect;rSize=0;fontSize=17;align=left;spacingLeft=5;resizeWidth=1;whiteSpace=wrap;strokeColor=none;" vertex="1" parent="RH1s60IlDJt-m1Dcu7O3-143">
          <mxGeometry width="180" height="20" relative="1" as="geometry">
            <mxPoint y="70" as="offset" />
          </mxGeometry>
        </mxCell>
        <mxCell id="RH1s60IlDJt-m1Dcu7O3-148" value="TourD" style="strokeWidth=1;shadow=0;dashed=0;align=center;html=1;shape=mxgraph.mockup.forms.anchor;fontSize=17;fontColor=#666666;align=left;spacingLeft=5;resizeWidth=1;whiteSpace=wrap;" vertex="1" parent="RH1s60IlDJt-m1Dcu7O3-143">
          <mxGeometry width="180" height="20" relative="1" as="geometry">
            <mxPoint y="90" as="offset" />
          </mxGeometry>
        </mxCell>
        <mxCell id="RH1s60IlDJt-m1Dcu7O3-149" value="" style="rounded=0;whiteSpace=wrap;html=1;" vertex="1" parent="1">
          <mxGeometry x="874" y="580" width="40" height="390" as="geometry" />
        </mxCell>
        <mxCell id="RH1s60IlDJt-m1Dcu7O3-150" value="" style="strokeColor=#999999;verticalLabelPosition=bottom;shadow=0;dashed=0;verticalAlign=top;strokeWidth=2;html=1;shape=mxgraph.mockup.misc.printIcon;" vertex="1" parent="1">
          <mxGeometry x="879" y="930" width="30" height="30" as="geometry" />
        </mxCell>
        <mxCell id="RH1s60IlDJt-m1Dcu7O3-151" value="" style="strokeColor=#999999;verticalLabelPosition=bottom;shadow=0;dashed=0;verticalAlign=top;strokeWidth=2;html=1;shape=mxgraph.mockup.misc.printIcon;" vertex="1" parent="1">
          <mxGeometry x="879" y="890" width="30" height="30" as="geometry" />
        </mxCell>
        <mxCell id="RH1s60IlDJt-m1Dcu7O3-152" value="" style="shape=flexArrow;endArrow=classic;html=1;rounded=0;" edge="1" parent="1">
          <mxGeometry width="50" height="50" relative="1" as="geometry">
            <mxPoint x="680" y="760" as="sourcePoint" />
            <mxPoint x="740" y="760" as="targetPoint" />
          </mxGeometry>
        </mxCell>
        <mxCell id="RH1s60IlDJt-m1Dcu7O3-153" value="Fill User Inputs" style="text;html=1;align=center;verticalAlign=middle;whiteSpace=wrap;rounded=0;" vertex="1" parent="1">
          <mxGeometry x="680" y="707.5" width="53" height="30" as="geometry" />
        </mxCell>
        <mxCell id="RH1s60IlDJt-m1Dcu7O3-154" value="" style="shape=flexArrow;endArrow=classic;html=1;rounded=0;" edge="1" parent="1">
          <mxGeometry width="50" height="50" relative="1" as="geometry">
            <mxPoint x="805" y="759.7" as="sourcePoint" />
            <mxPoint x="865" y="759.7" as="targetPoint" />
          </mxGeometry>
        </mxCell>
        <mxCell id="RH1s60IlDJt-m1Dcu7O3-155" value="" style="rhombus;whiteSpace=wrap;html=1;" vertex="1" parent="1">
          <mxGeometry x="750" y="737.5" width="45" height="45" as="geometry" />
        </mxCell>
        <mxCell id="RH1s60IlDJt-m1Dcu7O3-156" value="Wrong Input" style="text;html=1;align=center;verticalAlign=middle;whiteSpace=wrap;rounded=0;" vertex="1" parent="1">
          <mxGeometry x="795" y="707.5" width="60" height="30" as="geometry" />
        </mxCell>
        <mxCell id="RH1s60IlDJt-m1Dcu7O3-157" value="" style="shape=flexArrow;endArrow=classic;html=1;rounded=0;" edge="1" parent="1">
          <mxGeometry width="50" height="50" relative="1" as="geometry">
            <mxPoint x="770" y="720" as="sourcePoint" />
            <mxPoint x="840" y="220" as="targetPoint" />
            <Array as="points">
              <mxPoint x="770" y="220" />
            </Array>
          </mxGeometry>
        </mxCell>
        <mxCell id="RH1s60IlDJt-m1Dcu7O3-158" value="" style="strokeWidth=1;shadow=0;dashed=0;align=center;html=1;shape=mxgraph.mockup.containers.marginRect2;rectMarginTop=32;whiteSpace=wrap;" vertex="1" parent="1">
          <mxGeometry x="914" y="44" width="580" height="420" as="geometry" />
        </mxCell>
        <mxCell id="RH1s60IlDJt-m1Dcu7O3-159" value="Home" style="strokeColor=inherit;fillColor=inherit;gradientColor=inherit;strokeWidth=1;shadow=0;dashed=0;align=center;html=1;shape=mxgraph.mockup.containers.rrect;rSize=0;fontSize=17;fontColor=#666666;gradientColor=none;" vertex="1" parent="RH1s60IlDJt-m1Dcu7O3-158">
          <mxGeometry width="60" height="25" relative="1" as="geometry">
            <mxPoint x="10" as="offset" />
          </mxGeometry>
        </mxCell>
        <mxCell id="RH1s60IlDJt-m1Dcu7O3-160" value="Tour" style="strokeWidth=1;shadow=0;dashed=0;align=center;html=1;shape=mxgraph.mockup.containers.rrect;rSize=0;fontSize=17;fontColor=#ffffff;strokeColor=#008cff;fillColor=#008cff;" vertex="1" parent="RH1s60IlDJt-m1Dcu7O3-158">
          <mxGeometry width="60" height="25" relative="1" as="geometry">
            <mxPoint x="75" as="offset" />
          </mxGeometry>
        </mxCell>
        <mxCell id="RH1s60IlDJt-m1Dcu7O3-161" value="Logs" style="strokeColor=inherit;fillColor=inherit;gradientColor=inherit;strokeWidth=1;shadow=0;dashed=0;align=center;html=1;shape=mxgraph.mockup.containers.rrect;rSize=0;fontSize=17;fontColor=#666666;gradientColor=none;" vertex="1" parent="RH1s60IlDJt-m1Dcu7O3-158">
          <mxGeometry width="60" height="25" relative="1" as="geometry">
            <mxPoint x="140" as="offset" />
          </mxGeometry>
        </mxCell>
        <mxCell id="RH1s60IlDJt-m1Dcu7O3-162" value="" style="strokeWidth=1;shadow=0;dashed=0;align=center;html=1;shape=mxgraph.mockup.containers.topButton;rSize=5;strokeColor=#008cff;fillColor=#008cff;gradientColor=none;resizeWidth=1;movable=0;deletable=1;" vertex="1" parent="RH1s60IlDJt-m1Dcu7O3-158">
          <mxGeometry width="402.1333333333333" height="7" relative="1" as="geometry">
            <mxPoint y="25" as="offset" />
          </mxGeometry>
        </mxCell>
        <mxCell id="RH1s60IlDJt-m1Dcu7O3-163" value="Add New Tour" style="text;html=1;align=center;verticalAlign=middle;whiteSpace=wrap;rounded=0;" vertex="1" parent="RH1s60IlDJt-m1Dcu7O3-158">
          <mxGeometry x="230" y="40" width="120" height="30" as="geometry" />
        </mxCell>
        <mxCell id="RH1s60IlDJt-m1Dcu7O3-164" value="Name:" style="text;html=1;align=center;verticalAlign=middle;whiteSpace=wrap;rounded=0;" vertex="1" parent="RH1s60IlDJt-m1Dcu7O3-158">
          <mxGeometry x="10" y="70" width="130" height="30" as="geometry" />
        </mxCell>
        <mxCell id="RH1s60IlDJt-m1Dcu7O3-165" value="TourE" style="rounded=1;whiteSpace=wrap;html=1;align=left;" vertex="1" parent="RH1s60IlDJt-m1Dcu7O3-158">
          <mxGeometry x="156" y="75" width="224" height="20" as="geometry" />
        </mxCell>
        <mxCell id="RH1s60IlDJt-m1Dcu7O3-166" value="Description:" style="text;html=1;align=center;verticalAlign=middle;whiteSpace=wrap;rounded=0;" vertex="1" parent="RH1s60IlDJt-m1Dcu7O3-158">
          <mxGeometry x="10" y="100" width="130" height="30" as="geometry" />
        </mxCell>
        <mxCell id="RH1s60IlDJt-m1Dcu7O3-167" value="idk" style="rounded=1;whiteSpace=wrap;html=1;align=left;" vertex="1" parent="RH1s60IlDJt-m1Dcu7O3-158">
          <mxGeometry x="156" y="105" width="224" height="20" as="geometry" />
        </mxCell>
        <mxCell id="RH1s60IlDJt-m1Dcu7O3-168" value="From:" style="text;html=1;align=center;verticalAlign=middle;whiteSpace=wrap;rounded=0;" vertex="1" parent="RH1s60IlDJt-m1Dcu7O3-158">
          <mxGeometry x="10" y="130" width="130" height="30" as="geometry" />
        </mxCell>
        <mxCell id="RH1s60IlDJt-m1Dcu7O3-169" value="A" style="rounded=1;whiteSpace=wrap;html=1;align=left;" vertex="1" parent="RH1s60IlDJt-m1Dcu7O3-158">
          <mxGeometry x="156" y="135" width="224" height="20" as="geometry" />
        </mxCell>
        <mxCell id="RH1s60IlDJt-m1Dcu7O3-170" value="To:" style="text;html=1;align=center;verticalAlign=middle;whiteSpace=wrap;rounded=0;" vertex="1" parent="RH1s60IlDJt-m1Dcu7O3-158">
          <mxGeometry x="10" y="160" width="130" height="30" as="geometry" />
        </mxCell>
        <mxCell id="RH1s60IlDJt-m1Dcu7O3-171" value="B" style="rounded=1;whiteSpace=wrap;html=1;align=left;" vertex="1" parent="RH1s60IlDJt-m1Dcu7O3-158">
          <mxGeometry x="156" y="165" width="224" height="20" as="geometry" />
        </mxCell>
        <mxCell id="RH1s60IlDJt-m1Dcu7O3-172" value="Transport Type:" style="text;html=1;align=center;verticalAlign=middle;whiteSpace=wrap;rounded=0;" vertex="1" parent="RH1s60IlDJt-m1Dcu7O3-158">
          <mxGeometry x="10" y="190" width="130" height="30" as="geometry" />
        </mxCell>
        <mxCell id="RH1s60IlDJt-m1Dcu7O3-173" value="Bim" style="rounded=1;whiteSpace=wrap;html=1;align=left;" vertex="1" parent="RH1s60IlDJt-m1Dcu7O3-158">
          <mxGeometry x="156" y="195" width="224" height="20" as="geometry" />
        </mxCell>
        <mxCell id="RH1s60IlDJt-m1Dcu7O3-174" value="Distance:" style="text;html=1;align=center;verticalAlign=middle;whiteSpace=wrap;rounded=0;" vertex="1" parent="RH1s60IlDJt-m1Dcu7O3-158">
          <mxGeometry x="10" y="220" width="130" height="30" as="geometry" />
        </mxCell>
        <mxCell id="RH1s60IlDJt-m1Dcu7O3-175" value="&lt;font color=&quot;#080000&quot;&gt;Test&lt;/font&gt;" style="rounded=1;whiteSpace=wrap;html=1;align=left;strokeColor=#080000;" vertex="1" parent="RH1s60IlDJt-m1Dcu7O3-158">
          <mxGeometry x="156" y="225" width="224" height="20" as="geometry" />
        </mxCell>
        <mxCell id="RH1s60IlDJt-m1Dcu7O3-176" value="Estimated Time:" style="text;html=1;align=center;verticalAlign=middle;whiteSpace=wrap;rounded=0;" vertex="1" parent="RH1s60IlDJt-m1Dcu7O3-158">
          <mxGeometry x="10" y="250" width="130" height="30" as="geometry" />
        </mxCell>
        <mxCell id="RH1s60IlDJt-m1Dcu7O3-177" value="5" style="rounded=1;whiteSpace=wrap;html=1;align=left;" vertex="1" parent="RH1s60IlDJt-m1Dcu7O3-158">
          <mxGeometry x="156" y="255" width="224" height="20" as="geometry" />
        </mxCell>
        <mxCell id="RH1s60IlDJt-m1Dcu7O3-178" value="Add Tour" style="strokeWidth=1;shadow=0;dashed=0;align=center;html=1;shape=mxgraph.mockup.buttons.button;strokeColor=#666666;fontColor=#ffffff;mainText=;buttonStyle=round;fontSize=17;fontStyle=1;fillColor=#008cff;whiteSpace=wrap;" vertex="1" parent="RH1s60IlDJt-m1Dcu7O3-158">
          <mxGeometry y="340" width="200" height="80" as="geometry" />
        </mxCell>
        <mxCell id="RH1s60IlDJt-m1Dcu7O3-179" value="Update Tour" style="strokeWidth=1;shadow=0;dashed=0;align=center;html=1;shape=mxgraph.mockup.buttons.button;strokeColor=#666666;fontColor=#ffffff;mainText=;buttonStyle=round;fontSize=17;fontStyle=1;fillColor=#008cff;whiteSpace=wrap;" vertex="1" parent="RH1s60IlDJt-m1Dcu7O3-158">
          <mxGeometry x="200" y="340" width="190" height="80" as="geometry" />
        </mxCell>
        <mxCell id="RH1s60IlDJt-m1Dcu7O3-180" value="Delete Tour" style="strokeWidth=1;shadow=0;dashed=0;align=center;html=1;shape=mxgraph.mockup.buttons.button;strokeColor=#666666;fontColor=#ffffff;mainText=;buttonStyle=round;fontSize=17;fontStyle=1;fillColor=#008cff;whiteSpace=wrap;" vertex="1" parent="RH1s60IlDJt-m1Dcu7O3-158">
          <mxGeometry x="390" y="340" width="190" height="80" as="geometry" />
        </mxCell>
        <mxCell id="RH1s60IlDJt-m1Dcu7O3-181" value="" style="strokeWidth=1;shadow=0;dashed=0;align=center;html=1;shape=mxgraph.mockup.forms.rrect;rSize=0;" vertex="1" parent="RH1s60IlDJt-m1Dcu7O3-158">
          <mxGeometry x="390" y="75" width="180" height="245" as="geometry" />
        </mxCell>
        <mxCell id="RH1s60IlDJt-m1Dcu7O3-182" value="Tours" style="strokeWidth=1;shadow=0;dashed=0;align=center;html=1;shape=mxgraph.mockup.forms.rrect;rSize=0;strokeColor=#999999;fontColor=#008cff;fontSize=17;fillColor=#ffffff;resizeWidth=1;whiteSpace=wrap;" vertex="1" parent="RH1s60IlDJt-m1Dcu7O3-181">
          <mxGeometry width="180" height="30" relative="1" as="geometry">
            <mxPoint y="-1" as="offset" />
          </mxGeometry>
        </mxCell>
        <mxCell id="RH1s60IlDJt-m1Dcu7O3-183" value="TourA" style="strokeWidth=1;shadow=0;dashed=0;align=center;html=1;shape=mxgraph.mockup.forms.anchor;fontSize=17;fontColor=#666666;align=left;spacingLeft=5;resizeWidth=1;whiteSpace=wrap;" vertex="1" parent="RH1s60IlDJt-m1Dcu7O3-181">
          <mxGeometry width="180" height="20" relative="1" as="geometry">
            <mxPoint y="30" as="offset" />
          </mxGeometry>
        </mxCell>
        <mxCell id="RH1s60IlDJt-m1Dcu7O3-184" value="TourB" style="strokeWidth=1;shadow=0;dashed=0;align=center;html=1;shape=mxgraph.mockup.forms.anchor;fontSize=17;fontColor=#666666;align=left;spacingLeft=5;resizeWidth=1;whiteSpace=wrap;" vertex="1" parent="RH1s60IlDJt-m1Dcu7O3-181">
          <mxGeometry width="180" height="20" relative="1" as="geometry">
            <mxPoint y="50" as="offset" />
          </mxGeometry>
        </mxCell>
        <mxCell id="RH1s60IlDJt-m1Dcu7O3-185" value="TourC" style="strokeWidth=1;shadow=0;dashed=0;align=center;html=1;shape=mxgraph.mockup.forms.rrect;rSize=0;fontSize=17;align=left;spacingLeft=5;resizeWidth=1;whiteSpace=wrap;strokeColor=none;" vertex="1" parent="RH1s60IlDJt-m1Dcu7O3-181">
          <mxGeometry width="180" height="20" relative="1" as="geometry">
            <mxPoint y="70" as="offset" />
          </mxGeometry>
        </mxCell>
        <mxCell id="RH1s60IlDJt-m1Dcu7O3-186" value="TourD" style="strokeWidth=1;shadow=0;dashed=0;align=center;html=1;shape=mxgraph.mockup.forms.anchor;fontSize=17;fontColor=#666666;align=left;spacingLeft=5;resizeWidth=1;whiteSpace=wrap;" vertex="1" parent="RH1s60IlDJt-m1Dcu7O3-181">
          <mxGeometry width="180" height="20" relative="1" as="geometry">
            <mxPoint y="90" as="offset" />
          </mxGeometry>
        </mxCell>
        <mxCell id="RH1s60IlDJt-m1Dcu7O3-187" value="" style="rounded=0;whiteSpace=wrap;html=1;" vertex="1" parent="1">
          <mxGeometry x="874" y="74" width="40" height="390" as="geometry" />
        </mxCell>
        <mxCell id="RH1s60IlDJt-m1Dcu7O3-188" value="" style="strokeColor=#999999;verticalLabelPosition=bottom;shadow=0;dashed=0;verticalAlign=top;strokeWidth=2;html=1;shape=mxgraph.mockup.misc.printIcon;" vertex="1" parent="1">
          <mxGeometry x="879" y="424" width="30" height="30" as="geometry" />
        </mxCell>
        <mxCell id="RH1s60IlDJt-m1Dcu7O3-189" value="" style="strokeColor=#999999;verticalLabelPosition=bottom;shadow=0;dashed=0;verticalAlign=top;strokeWidth=2;html=1;shape=mxgraph.mockup.misc.printIcon;" vertex="1" parent="1">
          <mxGeometry x="879" y="384" width="30" height="30" as="geometry" />
        </mxCell>
        <mxCell id="RH1s60IlDJt-m1Dcu7O3-191" value="Success" style="text;html=1;align=center;verticalAlign=middle;whiteSpace=wrap;rounded=0;" vertex="1" parent="1">
          <mxGeometry x="790" y="510" width="60" height="30" as="geometry" />
        </mxCell>
        <mxCell id="RH1s60IlDJt-m1Dcu7O3-194" value="TourE" style="strokeWidth=1;shadow=0;dashed=0;align=center;html=1;shape=mxgraph.mockup.forms.anchor;fontSize=17;fontColor=#666666;align=left;spacingLeft=5;resizeWidth=1;whiteSpace=wrap;" vertex="1" parent="1">
          <mxGeometry x="1304" y="229" width="180" height="20" as="geometry" />
        </mxCell>
        <mxCell id="RH1s60IlDJt-m1Dcu7O3-195" value="" style="shape=flexArrow;endArrow=classic;html=1;rounded=0;entryX=0.684;entryY=-0.429;entryDx=0;entryDy=0;entryPerimeter=0;" edge="1" parent="1">
          <mxGeometry width="50" height="50" relative="1" as="geometry">
            <mxPoint x="362.5" y="980" as="sourcePoint" />
            <mxPoint x="362.55920000000015" y="1071.997" as="targetPoint" />
          </mxGeometry>
        </mxCell>
        <mxCell id="RH1s60IlDJt-m1Dcu7O3-196" value="Click on Button &quot;Export&quot; (Menu left side) =&amp;gt; Pop-Up" style="text;html=1;align=center;verticalAlign=middle;whiteSpace=wrap;rounded=0;" vertex="1" parent="1">
          <mxGeometry x="377.5" y="1007" width="152.5" height="30" as="geometry" />
        </mxCell>
        <mxCell id="RH1s60IlDJt-m1Dcu7O3-197" value="" style="rounded=0;whiteSpace=wrap;html=1;" vertex="1" parent="1">
          <mxGeometry x="190" y="1080" width="350" height="350" as="geometry" />
        </mxCell>
        <mxCell id="RH1s60IlDJt-m1Dcu7O3-198" value="Export Data" style="text;html=1;align=center;verticalAlign=middle;whiteSpace=wrap;rounded=0;" vertex="1" parent="1">
          <mxGeometry x="317.5" y="1090" width="95" height="30" as="geometry" />
        </mxCell>
        <mxCell id="RH1s60IlDJt-m1Dcu7O3-199" value="Export As" style="text;html=1;align=center;verticalAlign=middle;whiteSpace=wrap;rounded=0;" vertex="1" parent="1">
          <mxGeometry x="220" y="1120" width="60" height="30" as="geometry" />
        </mxCell>
        <mxCell id="RH1s60IlDJt-m1Dcu7O3-200" value="Option 1" style="strokeWidth=1;shadow=0;dashed=0;align=center;html=1;shape=mxgraph.mockup.forms.comboBox;strokeColor=#999999;fillColor=#ddeeff;align=left;fillColor2=#aaddff;mainText=;fontColor=#666666;fontSize=17;spacingLeft=3;" vertex="1" parent="1">
          <mxGeometry x="290" y="1120" width="150" height="30" as="geometry" />
        </mxCell>
        <mxCell id="RH1s60IlDJt-m1Dcu7O3-201" value="Destination" style="text;html=1;align=center;verticalAlign=middle;whiteSpace=wrap;rounded=0;" vertex="1" parent="1">
          <mxGeometry x="220" y="1160" width="60" height="30" as="geometry" />
        </mxCell>
        <mxCell id="RH1s60IlDJt-m1Dcu7O3-202" value="" style="rounded=1;whiteSpace=wrap;html=1;" vertex="1" parent="1">
          <mxGeometry x="290" y="1160" width="150" height="30" as="geometry" />
        </mxCell>
        <mxCell id="RH1s60IlDJt-m1Dcu7O3-203" value="Export" style="strokeWidth=1;shadow=0;dashed=0;align=center;html=1;shape=mxgraph.mockup.buttons.button;strokeColor=#666666;fontColor=#ffffff;mainText=;buttonStyle=round;fontSize=17;fontStyle=1;fillColor=#008cff;whiteSpace=wrap;" vertex="1" parent="1">
          <mxGeometry x="295" y="1310" width="150" height="50" as="geometry" />
        </mxCell>
      </root>
    </mxGraphModel>
  </diagram>
</mxfile>
